#!OML:ASF F:\VICON\USERDATA\INSTALL\rory3\rory3.ASF
:FULLY-SPECIFIED
:DEGREES
380
root 0.671312 17.9637 -0.623034 2.75776 -30.7977 2.17708
lowerback 2.38068 -1.25961 -4.93426
upperback 0.471226 -1.78726 2.06575
thorax -0.632479 -0.88916 4.95458
lowerneck -21.9784 -0.347308 -10.781
upperneck 0.989363 1.68222 7.59787
head 3.57465 1.1791 4.2706
rclavicle -3.97569e-015 -2.34566e-014
rhumerus -33.5096 -5.6031 -72.4436
rradius 40.9911
rwrist 14.6981
rhand -26.1157 11.5766
rfingers 7.12502
rthumb 0.43402 -18.4027
lclavicle -3.97569e-015 -2.34566e-014
lhumerus 40.529 -7.63402 47.9937
lradius 104.77
lwrist 4.63541
lhand -36.965 33.676
lfingers 7.12502
lthumb -10.0408 63.4165
rfemur -12.0305 2.90694 9.99376
rtibia 24.7805
rfoot -15.48 -9.77089
rtoes 2.32501
lfemur -2.92125 1.74776 -24.1627
ltibia 14.3158
lfoot -10.1578 6.65387
ltoes -12.7672
381
root 0.675254 17.9658 -0.634737 2.81879 -30.8659 2.18835
lowerback 2.34266 -1.23416 -4.98516
upperback 0.577908 -1.75187 2.05861
thorax -0.504113 -0.877803 4.97238
lowerneck -21.9903 -0.390413 -11.0024
upperneck 1.20988 1.66885 7.75929
head 3.64403 1.17903 4.35987
rclavicle -1.55947e-013 -4.77083e-015
rhumerus -33.3965 -5.4687 -72.5323
rradius 41.1063
rwrist 14.4071
rhand -25.9344 11.0193
rfingers 7.12502
rthumb 0.609115 -18.9596
lclavicle -1.55947e-013 -4.77083e-015
lhumerus 40.1735 -8.01615 48.3515
lradius 105.012
lwrist 4.97215
lhand -36.4799 33.4144
lfingers 7.12502
lthumb -9.57283 63.1769
rfemur -12.1638 2.97498 9.97771
rtibia 24.7733
rfoot -15.4531 -9.7776
rtoes 2.89742
lfemur -2.99508 1.63135 -24.1713
ltibia 14.2189
lfoot -10.0665 6.79464
ltoes -12.3946
382
root 0.680095 17.9693 -0.644001 2.82005 -30.5534 2.18882
lowerback 2.39538 -1.33048 -4.9854
upperback 0.661248 -1.88214 2.06103
thorax -0.431588 -0.947314 4.97764
lowerneck -21.9229 -0.45813 -11.259
upperneck 1.39643 1.62325 7.93831
head 3.69429 1.16288 4.45638
rclavicle -5.14852e-014 -9.54166e-015
rhumerus -33.3514 -5.31444 -72.5899
rradius 41.2565
rwrist 14.1925
rhand -26.0146 10.959
rfingers 7.12502
rthumb 0.531656 -19.0201
lclavicle -5.14852e-014 -9.54166e-015
lhumerus 39.7152 -8.45079 48.742
lradius 105.289
lwrist 5.0835
lhand -36.0233 33.49
lfingers 7.12502
lthumb -9.13232 63.2723
rfemur -12.0916 2.82655 10.0029
rtibia 24.7428
rfoot -15.4899 -9.94891
rtoes 3.36827
lfemur -3.02054 1.48374 -24.1266
ltibia 14.1374
lfoot -9.93671 6.58586
ltoes -11.8824
383
root 0.684191 17.9694 -0.6445 2.55427 -29.7953 2.21139
lowerback 2.66819 -1.52482 -4.89662
upperback 0.751652 -2.15127 1.9948
thorax -0.464089 -1.08319 4.87061
lowerneck -21.7102 -0.532571 -11.2802
upperneck 1.65856 1.50133 7.97973
head 3.75691 1.09966 4.46293
rclavicle -1.93815e-015 5.96354e-015
rhumerus -33.4887 -5.36484 -72.6266
rradius 41.3612
rwrist 14.2487
rhand -26.2306 11.0044
rfingers 7.12502
rthumb 0.322993 -18.9751
lclavicle -1.93815e-015 5.96354e-015
lhumerus 39.2092 -9.0976 49.0635
lradius 105.506
lwrist 5.03535
lhand -36.0219 33.519
lfingers 7.12502
lthumb -9.13091 63.3013
rfemur -11.5442 2.53028 10.0434
rtibia 24.6767
rfoot -15.7556 -10.2824
rtoes 3.34987
lfemur -2.77865 1.16598 -24.0851
ltibia 14.1229
lfoot -9.86686 6.17593
ltoes -11.9871
384
root 0.686271 17.9705 -0.651385 2.57783 -29.8019 2.15768
lowerback 2.68723 -1.49283 -4.90612
upperback 0.782771 -2.10949 1.98268
thorax -0.44781 -1.06346 4.86248
lowerneck -21.5195 -0.51207 -11.2241
upperneck 1.92921 1.49463 7.91747
head 3.81456 1.08769 4.43372
rclavicle 3.60297e-014 -2.78299e-015
rhumerus -33.6048 -5.33094 -72.6645
rradius 41.4921
rwrist 14.194
rhand -26.2036 10.8624
rfingers 7.12502
rthumb 0.349089 -19.117
lclavicle 3.60297e-014 -2.78299e-015
lhumerus 38.6455 -9.69912 49.3118
lradius 105.736
lwrist 5.14968
lhand -36.0765 33.5871
lfingers 7.12502
lthumb -9.18361 63.3672
rfemur -11.5319 2.58538 10.1034
rtibia 24.5999
rfoot -15.7227 -10.3221
rtoes 2.78755
lfemur -2.81488 1.23161 -24.0291
ltibia 14.1518
lfoot -9.8633 6.12924
ltoes -12.1565
